<svg id="Capa_1" data-name="Capa 1" xmlns="http://www.w3.org/2000/svg" viewBox="0 0 742.56 161.48"><defs><style>.cls-1{fill:#c54928;}.cls-2{fill:#54d397;}</style></defs><title>Patita fondo 1</title><path class="cls-1" d="M767.94-85.22c-.08,0-.06-.14-.09-.21S767.94-85.3,767.94-85.22Z" transform="translate(-25.38 85.43)"/><path class="cls-2" d="M59.2,72.09a7.84,7.84,0,0,1-9.79,3.41C47.19,74.69,45.93,73,44.87,71c-.48-.9-.95-1.81-1.48-2.68a7.32,7.32,0,0,0-6.19-3.73c-1.51-.08-3-.07-4.55-.15A7.83,7.83,0,0,1,25.5,58c-.57-3.51.87-6.28,3.57-8.49a10.24,10.24,0,0,1,6.36-2.36,33.88,33.88,0,0,0,11-2.34A7.61,7.61,0,0,1,56.75,51,40.31,40.31,0,0,0,60,62.66,10.07,10.07,0,0,1,59.2,72.09Z" transform="translate(-25.38 85.43)"/><path class="cls-2" d="M56.41,36a9.06,9.06,0,0,1-5.16,4,4,4,0,0,1-5.14-3,10.34,10.34,0,0,1,.78-7.16,12,12,0,0,1,3.65-4.75,5.72,5.72,0,0,1,4.64-1.46A4.49,4.49,0,0,1,58.66,28,12.48,12.48,0,0,1,56.41,36Z" transform="translate(-25.38 85.43)"/><path class="cls-2" d="M68.27,41.85a10.83,10.83,0,0,1-5.95,4.56c-3.26.92-5.66-.9-5.74-4.31a10.75,10.75,0,0,1,2.26-6.64,11.59,11.59,0,0,1,4.81-4.06,5.07,5.07,0,0,1,4.49-.12,4.12,4.12,0,0,1,2.25,3.62C70.56,37,70,39,68.27,41.85Z" transform="translate(-25.38 85.43)"/><path class="cls-2" d="M72.17,57.87a9.47,9.47,0,0,1-5.87,4.42,4.67,4.67,0,0,1-6-4.75c-.07-3.92,3.48-8.28,7.28-9s6.24,1.73,5.92,5.54A8.77,8.77,0,0,1,72.17,57.87Z" transform="translate(-25.38 85.43)"/><path class="cls-2" d="M40.17,40.54a8.29,8.29,0,0,1-3.29,2.92,4.61,4.61,0,0,1-6.71-2.92,9,9,0,0,1,.88-7.11,8.92,8.92,0,0,1,3-3.39c3.37-2.15,7.16-.45,7.73,3.48A10.43,10.43,0,0,1,40.17,40.54Z" transform="translate(-25.38 85.43)"/></svg>